<mxfile host="app.diagrams.net" modified="2024-03-20T12:00:00.000Z" agent="Mozilla/5.0" version="21.1.9" type="device">
  <diagram id="haircut-model" name="Барбершоп">
    <mxGraphModel dx="1422" dy="798" grid="1" gridSize="10" guides="1" tooltips="1" connect="1" arrows="1" fold="1" page="1" pageScale="1" pageWidth="827" pageHeight="1169" math="0" shadow="0">
      <root>
        <mxCell id="0" />
        <mxCell id="1" parent="0" />
        
        <!-- Сущности -->
        <mxCell id="client" value="CLIENT&#xa;client_id (PK)&#xa;full_name&#xa;phone&#xa;email&#xa;contact_channel&#xa;status" style="rounded=0;whiteSpace=wrap;html=1;" vertex="1" parent="1">
          <mxGeometry x="40" y="40" width="160" height="120" as="geometry" />
        </mxCell>
        
        <mxCell id="master" value="MASTER&#xa;master_id (PK)&#xa;full_name&#xa;specialization&#xa;contacts&#xa;status" style="rounded=0;whiteSpace=wrap;html=1;" vertex="1" parent="1">
          <mxGeometry x="280" y="40" width="160" height="120" as="geometry" />
        </mxCell>
        
        <mxCell id="service" value="SERVICE&#xa;service_id (PK)&#xa;name&#xa;type&#xa;duration&#xa;price&#xa;status" style="rounded=0;whiteSpace=wrap;html=1;" vertex="1" parent="1">
          <mxGeometry x="520" y="40" width="160" height="120" as="geometry" />
        </mxCell>
        
        <mxCell id="appointment" value="APPOINTMENT&#xa;appointment_id (PK)&#xa;client_id (FK)&#xa;service_id (FK)&#xa;master_id (FK)&#xa;datetime&#xa;status" style="rounded=0;whiteSpace=wrap;html=1;" vertex="1" parent="1">
          <mxGeometry x="280" y="240" width="160" height="120" as="geometry" />
        </mxCell>
        
        <mxCell id="schedule" value="SCHEDULE&#xa;schedule_id (PK)&#xa;master_id (FK)&#xa;date&#xa;start_time&#xa;end_time&#xa;status" style="rounded=0;whiteSpace=wrap;html=1;" vertex="1" parent="1">
          <mxGeometry x="520" y="240" width="160" height="120" as="geometry" />
        </mxCell>
        
        <mxCell id="review" value="REVIEW&#xa;review_id (PK)&#xa;appointment_id (FK)&#xa;rating&#xa;comment&#xa;created_at" style="rounded=0;whiteSpace=wrap;html=1;" vertex="1" parent="1">
          <mxGeometry x="40" y="240" width="160" height="120" as="geometry" />
        </mxCell>
        
        <mxCell id="payment" value="PAYMENT&#xa;payment_id (PK)&#xa;appointment_id (FK)&#xa;amount&#xa;date&#xa;status&#xa;method" style="rounded=0;whiteSpace=wrap;html=1;" vertex="1" parent="1">
          <mxGeometry x="280" y="440" width="160" height="120" as="geometry" />
        </mxCell>
        
        <mxCell id="notification" value="NOTIFICATION&#xa;notification_id (PK)&#xa;appointment_id (FK)&#xa;type&#xa;status&#xa;channel&#xa;sent_at" style="rounded=0;whiteSpace=wrap;html=1;" vertex="1" parent="1">
          <mxGeometry x="520" y="440" width="160" height="120" as="geometry" />
        </mxCell>
        
        <!-- Связи -->
        <mxCell id="client-appointment" value="1" style="endArrow=ERoneToMany;html=1;rounded=0;exitX=0.5;exitY=1;exitDx=0;exitDy=0;entryX=0;entryY=0.5;entryDx=0;entryDy=0;endFill=0;" edge="1" parent="1" source="client" target="appointment">
          <mxGeometry relative="1" as="geometry" />
        </mxCell>
        
        <mxCell id="master-appointment" value="1" style="endArrow=ERoneToMany;html=1;rounded=0;exitX=0.5;exitY=1;exitDx=0;exitDy=0;entryX=0.5;entryY=0;entryDx=0;entryDy=0;endFill=0;" edge="1" parent="1" source="master" target="appointment">
          <mxGeometry relative="1" as="geometry" />
        </mxCell>
        
        <mxCell id="service-appointment" value="1" style="endArrow=ERoneToMany;html=1;rounded=0;exitX=0.5;exitY=1;exitDx=0;exitDy=0;entryX=1;entryY=0.5;entryDx=0;entryDy=0;endFill=0;" edge="1" parent="1" source="service" target="appointment">
          <mxGeometry relative="1" as="geometry" />
        </mxCell>
        
        <mxCell id="master-schedule" value="1" style="endArrow=ERoneToMany;html=1;rounded=0;exitX=1;exitY=0.5;exitDx=0;exitDy=0;entryX=0.5;entryY=0;entryDx=0;entryDy=0;endFill=0;" edge="1" parent="1" source="master" target="schedule">
          <mxGeometry relative="1" as="geometry" />
        </mxCell>
        
        <mxCell id="appointment-review" value="1" style="endArrow=ERone;html=1;rounded=0;exitX=0;exitY=0.5;exitDx=0;exitDy=0;entryX=1;entryY=0.5;entryDx=0;entryDy=0;endFill=0;" edge="1" parent="1" source="appointment" target="review">
          <mxGeometry relative="1" as="geometry" />
        </mxCell>
        
        <mxCell id="appointment-payment" value="1" style="endArrow=ERone;html=1;rounded=0;exitX=0.5;exitY=1;exitDx=0;exitDy=0;entryX=0.5;entryY=0;entryDx=0;entryDy=0;endFill=0;" edge="1" parent="1" source="appointment" target="payment">
          <mxGeometry relative="1" as="geometry" />
        </mxCell>
        
        <mxCell id="appointment-notification" value="1" style="endArrow=ERoneToMany;html=1;rounded=0;exitX=1;exitY=0.5;exitDx=0;exitDy=0;entryX=0;entryY=0.5;entryDx=0;entryDy=0;endFill=0;" edge="1" parent="1" source="appointment" target="notification">
          <mxGeometry relative="1" as="geometry" />
        </mxCell>
      </root>
    </mxGraphModel>
  </diagram>
</mxfile> 